<mxfile host="app.diagrams.net" modified="2023-01-15T11:58:57.198Z" agent="5.0 (Windows)" etag="jdtDGLNthL5mvyLo2jO-" version="20.7.4" type="github">
  <diagram id="PF6a7tQNFdjgtD0JMTZA" name="Page-1">
    <mxGraphModel dx="1050" dy="1666" grid="1" gridSize="10" guides="1" tooltips="1" connect="1" arrows="1" fold="1" page="1" pageScale="1" pageWidth="850" pageHeight="1100" math="0" shadow="0">
      <root>
        <mxCell id="0" />
        <mxCell id="1" parent="0" />
        <mxCell id="RTnkz_iMT8YpOQ4p1BW1-12" value="" style="edgeStyle=orthogonalEdgeStyle;rounded=0;orthogonalLoop=1;jettySize=auto;html=1;" parent="1" source="RTnkz_iMT8YpOQ4p1BW1-1" target="RTnkz_iMT8YpOQ4p1BW1-7" edge="1">
          <mxGeometry relative="1" as="geometry" />
        </mxCell>
        <mxCell id="RTnkz_iMT8YpOQ4p1BW1-1" value="&lt;div&gt;input name&lt;/div&gt;&lt;div&gt;input bid amount&lt;br&gt;&lt;/div&gt;" style="shape=parallelogram;perimeter=parallelogramPerimeter;whiteSpace=wrap;html=1;fixedSize=1;" parent="1" vertex="1">
          <mxGeometry x="363" y="380" width="120" height="60" as="geometry" />
        </mxCell>
        <mxCell id="RTnkz_iMT8YpOQ4p1BW1-25" value="" style="edgeStyle=orthogonalEdgeStyle;rounded=0;orthogonalLoop=1;jettySize=auto;html=1;" parent="1" source="RTnkz_iMT8YpOQ4p1BW1-2" target="RTnkz_iMT8YpOQ4p1BW1-10" edge="1">
          <mxGeometry relative="1" as="geometry" />
        </mxCell>
        <mxCell id="RTnkz_iMT8YpOQ4p1BW1-2" value="Start" style="ellipse;whiteSpace=wrap;html=1;" parent="1" vertex="1">
          <mxGeometry x="382.5" y="60" width="80" height="50" as="geometry" />
        </mxCell>
        <mxCell id="RTnkz_iMT8YpOQ4p1BW1-4" value="&lt;div&gt;Create an empty list auction_data&lt;/div&gt;&lt;div&gt;LOD to store responses per person&lt;br&gt;&lt;/div&gt;" style="rounded=0;whiteSpace=wrap;html=1;" parent="1" vertex="1">
          <mxGeometry x="363" y="470" width="120" height="70" as="geometry" />
        </mxCell>
        <mxCell id="RTnkz_iMT8YpOQ4p1BW1-20" value="" style="edgeStyle=orthogonalEdgeStyle;rounded=0;orthogonalLoop=1;jettySize=auto;html=1;" parent="1" source="RTnkz_iMT8YpOQ4p1BW1-6" target="RTnkz_iMT8YpOQ4p1BW1-17" edge="1">
          <mxGeometry relative="1" as="geometry" />
        </mxCell>
        <mxCell id="RTnkz_iMT8YpOQ4p1BW1-6" value="&lt;div&gt;append the bid_details to the LOD auction_data&lt;/div&gt;" style="rounded=0;whiteSpace=wrap;html=1;" parent="1" vertex="1">
          <mxGeometry x="363" y="760" width="120" height="60" as="geometry" />
        </mxCell>
        <mxCell id="RTnkz_iMT8YpOQ4p1BW1-14" value="" style="edgeStyle=orthogonalEdgeStyle;rounded=0;orthogonalLoop=1;jettySize=auto;html=1;" parent="1" source="RTnkz_iMT8YpOQ4p1BW1-7" target="RTnkz_iMT8YpOQ4p1BW1-6" edge="1">
          <mxGeometry relative="1" as="geometry" />
        </mxCell>
        <mxCell id="RTnkz_iMT8YpOQ4p1BW1-7" value="collect bidder name and bid amount in a dictionary bid_details" style="rounded=0;whiteSpace=wrap;html=1;" parent="1" vertex="1">
          <mxGeometry x="363" y="620" width="120" height="60" as="geometry" />
        </mxCell>
        <mxCell id="RTnkz_iMT8YpOQ4p1BW1-16" value="" style="edgeStyle=orthogonalEdgeStyle;rounded=0;orthogonalLoop=1;jettySize=auto;html=1;" parent="1" source="RTnkz_iMT8YpOQ4p1BW1-8" target="RTnkz_iMT8YpOQ4p1BW1-9" edge="1">
          <mxGeometry relative="1" as="geometry" />
        </mxCell>
        <mxCell id="RTnkz_iMT8YpOQ4p1BW1-8" value="Sort each element in the LOD auction_data by bid amount in descending order" style="rounded=0;whiteSpace=wrap;html=1;" parent="1" vertex="1">
          <mxGeometry x="360.25" y="1220" width="125" height="110" as="geometry" />
        </mxCell>
        <mxCell id="RTnkz_iMT8YpOQ4p1BW1-27" value="" style="edgeStyle=orthogonalEdgeStyle;rounded=0;orthogonalLoop=1;jettySize=auto;html=1;" parent="1" source="RTnkz_iMT8YpOQ4p1BW1-9" target="RTnkz_iMT8YpOQ4p1BW1-26" edge="1">
          <mxGeometry relative="1" as="geometry" />
        </mxCell>
        <mxCell id="RTnkz_iMT8YpOQ4p1BW1-9" value="&lt;div&gt;Decide winner&lt;br&gt;&lt;/div&gt;&lt;div&gt;Pick the first element in the sorted list and print name and bid amount&lt;/div&gt;" style="rounded=0;whiteSpace=wrap;html=1;" parent="1" vertex="1">
          <mxGeometry x="350.25" y="1390" width="145" height="110" as="geometry" />
        </mxCell>
        <mxCell id="RTnkz_iMT8YpOQ4p1BW1-11" value="" style="edgeStyle=orthogonalEdgeStyle;rounded=0;orthogonalLoop=1;jettySize=auto;html=1;" parent="1" source="RTnkz_iMT8YpOQ4p1BW1-10" target="RTnkz_iMT8YpOQ4p1BW1-1" edge="1">
          <mxGeometry relative="1" as="geometry" />
        </mxCell>
        <mxCell id="RTnkz_iMT8YpOQ4p1BW1-10" value="while continue_bidding == True" style="rhombus;whiteSpace=wrap;html=1;" parent="1" vertex="1">
          <mxGeometry x="315" y="160" width="215" height="140" as="geometry" />
        </mxCell>
        <mxCell id="RTnkz_iMT8YpOQ4p1BW1-21" value="" style="edgeStyle=orthogonalEdgeStyle;rounded=0;orthogonalLoop=1;jettySize=auto;html=1;" parent="1" source="RTnkz_iMT8YpOQ4p1BW1-17" target="RTnkz_iMT8YpOQ4p1BW1-18" edge="1">
          <mxGeometry relative="1" as="geometry" />
        </mxCell>
        <mxCell id="RTnkz_iMT8YpOQ4p1BW1-17" value="ask users if &quot;Are there any other bidders?&quot;" style="shape=parallelogram;perimeter=parallelogramPerimeter;whiteSpace=wrap;html=1;fixedSize=1;" parent="1" vertex="1">
          <mxGeometry x="315" y="880" width="215.5" height="80" as="geometry" />
        </mxCell>
        <mxCell id="RTnkz_iMT8YpOQ4p1BW1-19" style="edgeStyle=orthogonalEdgeStyle;rounded=0;orthogonalLoop=1;jettySize=auto;html=1;entryX=0;entryY=0.5;entryDx=0;entryDy=0;" parent="1" source="RTnkz_iMT8YpOQ4p1BW1-18" target="RTnkz_iMT8YpOQ4p1BW1-7" edge="1">
          <mxGeometry relative="1" as="geometry">
            <mxPoint x="120" y="600" as="targetPoint" />
            <Array as="points">
              <mxPoint x="120" y="1080" />
              <mxPoint x="120" y="650" />
            </Array>
          </mxGeometry>
        </mxCell>
        <mxCell id="RTnkz_iMT8YpOQ4p1BW1-23" value="" style="edgeStyle=orthogonalEdgeStyle;rounded=0;orthogonalLoop=1;jettySize=auto;html=1;" parent="1" source="RTnkz_iMT8YpOQ4p1BW1-18" target="RTnkz_iMT8YpOQ4p1BW1-8" edge="1">
          <mxGeometry relative="1" as="geometry" />
        </mxCell>
        <mxCell id="RTnkz_iMT8YpOQ4p1BW1-18" value="Any more bidders?" style="rhombus;whiteSpace=wrap;html=1;" parent="1" vertex="1">
          <mxGeometry x="355.38" y="1010" width="135.25" height="140" as="geometry" />
        </mxCell>
        <mxCell id="RTnkz_iMT8YpOQ4p1BW1-22" value="Yes" style="text;html=1;align=center;verticalAlign=middle;resizable=0;points=[];autosize=1;strokeColor=none;fillColor=none;" parent="1" vertex="1">
          <mxGeometry x="315" y="1050" width="40" height="30" as="geometry" />
        </mxCell>
        <mxCell id="RTnkz_iMT8YpOQ4p1BW1-24" value="&lt;div&gt;No&lt;/div&gt;" style="text;html=1;align=center;verticalAlign=middle;resizable=0;points=[];autosize=1;strokeColor=none;fillColor=none;" parent="1" vertex="1">
          <mxGeometry x="430" y="1155" width="40" height="30" as="geometry" />
        </mxCell>
        <mxCell id="RTnkz_iMT8YpOQ4p1BW1-26" value="Stop" style="ellipse;whiteSpace=wrap;html=1;" parent="1" vertex="1">
          <mxGeometry x="362.5" y="1540" width="120" height="80" as="geometry" />
        </mxCell>
        <mxCell id="RTnkz_iMT8YpOQ4p1BW1-28" value="&lt;h1&gt;&lt;font style=&quot;font-size: 14px;&quot;&gt;&lt;b&gt;Silent Auction&lt;/b&gt;&lt;/font&gt;&lt;/h1&gt;" style="text;html=1;align=center;verticalAlign=middle;resizable=0;points=[];autosize=1;strokeColor=none;fillColor=none;" parent="1" vertex="1">
          <mxGeometry x="352.5" y="-10" width="130" height="70" as="geometry" />
        </mxCell>
      </root>
    </mxGraphModel>
  </diagram>
</mxfile>
